<svg id="icon.svg" xmlns="http://www.w3.org/2000/svg" width="589.875" height="284.407" viewBox="0 0 589.875 284.407">
  <defs>
    <style>
      .cls-1, .cls-2, .cls-3 {
        fill-rule: evenodd;
      }

      .cls-2 {
        fill: #666;
      }

      .cls-3 {
        fill: #fff;
      }
    </style>
  </defs>
  <path id="pen.svg" class="cls-1" d="M374.119,6.939a2.9,2.9,0,0,1,4.151,0C380.32,8.989,392.5,21.263,392.5,21.263a2.885,2.885,0,0,1,.037,4.319c-2.322,2.485-58.012,60.227-58.012,60.227l-24.6,7.612s-4.934.188-3.642-4.315,7.22-24.054,7.22-24.054Zm6.444,9.026,2.882,3.116L332.694,69.855,329.589,67Zm-62.289,53.12,7.873,4.2,4.054,7.926-13.27,4.133-2.907-2.856Z" transform="translate(-11.406 -4.781)"/>
  <path id="yen.svg" class="cls-2" d="M543.691,71.963V89.19h0.739L555.9,79.316l18.524,3.389a2.148,2.148,0,0,0,2.069-.447c1.208-.854,12.911-9.087,12.911-9.087l10.871-7.8s2.217-2.492.084-4.624a4.136,4.136,0,0,0-4.8-.647l-13.347,9.188-13.722-.1a1.5,1.5,0,0,1,.083-2.727c2.374-.051,11.138.106,11.138,0.106a3.675,3.675,0,0,0,2.34-3.589c0-2.831-3.374-3.263-3.374-3.263l-16.324-.022a13.978,13.978,0,0,0-6.662,1.765,24.355,24.355,0,0,0-6.465,5.356Zm12.524-13.722s3.419-1.3,12.5-1.3S580.509,56.672,582,58.1s3.033,2.742,2.682,5.16c4.391-1.15,9.656-5.969,11.892-9.36s3.247-9.71,3.247-12.613-1.764-10-6.616-15.582A39.1,39.1,0,0,0,581.5,17l3.078-12.07-5.183-.145s-5.5,2.83-9.19,2.83a11.171,11.171,0,0,1-6.316-2.042l3.556,11.387s-7.278,4.4-11.527,8.918-6.726,10.821-6.726,15.8S552.2,55.124,556.215,58.241Zm14.119-21.853-3.217-5.032,3.205-.085,4.417,6.891,4.467-6.9h3.038l-3.058,5.262,3.827-.036,0.013,2.884-5.8.036L576.876,40l-0.144,2.389,6.2,0.072,0.084,3.262-6.322.014,0.014,4.959-3.937.049V45.7h-6.3V42.532s5.707-.079,6.029-0.049c-0.02-.9-0.072-1.566-0.148-2.472-0.03-.354-0.055-0.6-0.055-0.6h-5.955V36.467Z" transform="translate(-11.406 -4.781)"/>
  <path id="instagram.svg" class="cls-3" d="M149.531,216.974c10.6,0,11.86.04,16.048,0.231a21.977,21.977,0,0,1,7.374,1.368,13.148,13.148,0,0,1,7.537,7.537,21.978,21.978,0,0,1,1.367,7.374c0.191,4.187.232,5.443,0.232,16.047s-0.041,11.86-.232,16.048a21.984,21.984,0,0,1-1.367,7.374,13.156,13.156,0,0,1-7.537,7.537,21.984,21.984,0,0,1-7.374,1.367c-4.187.191-5.443,0.232-16.048,0.232s-11.86-.041-16.047-0.232a21.978,21.978,0,0,1-7.374-1.367,13.156,13.156,0,0,1-7.537-7.537,21.977,21.977,0,0,1-1.368-7.374c-0.191-4.188-.231-5.444-0.231-16.048s0.04-11.86.231-16.047a21.971,21.971,0,0,1,1.368-7.374,13.148,13.148,0,0,1,7.537-7.537,21.971,21.971,0,0,1,7.374-1.368c4.187-.191,5.443-0.231,16.047-0.231m0-7.1c-10.769,0-12.119.046-16.349,0.239a29.1,29.1,0,0,0-9.625,1.843,20.282,20.282,0,0,0-11.6,11.6,29.1,29.1,0,0,0-1.843,9.625c-0.193,4.23-.239,5.58-0.239,16.349s0.046,12.12.239,16.349a29.1,29.1,0,0,0,1.843,9.626,20.282,20.282,0,0,0,11.6,11.6,29.122,29.122,0,0,0,9.625,1.843c4.23,0.193,5.58.238,16.349,0.238s12.12-.045,16.349-0.238a29.128,29.128,0,0,0,9.626-1.843,20.282,20.282,0,0,0,11.6-11.6,29.128,29.128,0,0,0,1.843-9.626c0.193-4.229.238-5.58,0.238-16.349s-0.045-12.119-.238-16.349a29.122,29.122,0,0,0-1.843-9.625,20.282,20.282,0,0,0-11.6-11.6,29.1,29.1,0,0,0-9.626-1.843c-4.229-.193-5.58-0.239-16.349-0.239h0Zm0,19.3a20.35,20.35,0,1,0,20.35,20.349A20.35,20.35,0,0,0,149.531,229.182Zm0,33.6a13.254,13.254,0,1,1,13.254-13.254A13.254,13.254,0,0,1,149.531,262.785Zm25.88-34.385a4.749,4.749,0,1,1-4.749-4.748A4.749,4.749,0,0,1,175.411,228.4Z" transform="translate(-11.406 -4.781)"/>
  <path id="video.svg" class="cls-1" d="M120.4,53.938H155.54a9.21,9.21,0,0,1,9.21,9.21V79.321a9.21,9.21,0,0,1-9.21,9.21H120.4a9.21,9.21,0,0,1-9.21-9.21V63.148A9.21,9.21,0,0,1,120.4,53.938Zm2.284-38.984a17.489,17.489,0,1,1-17.489,17.489A17.488,17.488,0,0,1,122.682,14.954Zm31.431,0a17.489,17.489,0,1,1-17.489,17.489A17.488,17.488,0,0,1,154.113,14.954Zm-31.2,10.2a7.477,7.477,0,1,1-7.476,7.477A7.476,7.476,0,0,1,122.913,25.157Zm31.769,0a7.477,7.477,0,1,1-7.476,7.477A7.477,7.477,0,0,1,154.682,25.157ZM121.968,41.581H156.01v8.383H121.968V41.581ZM135.7,38.8h5.628v6.169H135.7V38.8Zm33.752,24.719,20.182-4.125a1.676,1.676,0,0,1,2.063,1.732V80.766a1.721,1.721,0,0,1-2.063,1.782l-20.182-3.637a1.468,1.468,0,0,1-.863-1.51V65.048A1.509,1.509,0,0,1,169.456,63.517Z" transform="translate(-11.406 -4.781)"/>
  <path id="camera.svg" class="cls-2" d="M208.462,31.585l0.026,44s0.172,4.444,4.6,4.444h74.342s5.033-.453,5.033-5.636V31.8a4.417,4.417,0,0,0-4.523-4.2c-4.3,0-10.542-.025-10.542-0.025s-3.249.905-5.387-4.18-2.5-5.808-2.5-5.808-0.756-2.927-5.509-2.927H236.045a6.183,6.183,0,0,0-4.663,2.717c-1.183,2.753-3.132,7.094-3.132,7.094a5.636,5.636,0,0,1-4.574,2.994c-3.353.294-9.686,0.042-9.686,0.042S209.277,27.787,208.462,31.585ZM250.5,33.347a19.2,19.2,0,1,1-19.2,19.2A19.2,19.2,0,0,1,250.5,33.347Zm-0.018,8.41a10.525,10.525,0,1,1-10.525,10.525A10.526,10.526,0,0,1,250.478,41.757Z" transform="translate(-11.406 -4.781)"/>
  <path id="home.svg" class="cls-1" d="M405.312,51.157l6.161,6.353,37.474-37.1L486.762,57.69l6.292-7.1L449.308,6.811Zm14.058,7.215,0.064,25.34,33.1,0.07,0.059-19.97,11.523-.21,0.069,20.25,14.179,0.126,0.07-25.114L449.046,29.675Z" transform="translate(-11.406 -4.781)"/>
  <path id="men.svg" class="cls-2" d="M31.888,12.47L31.437,7.234s2.189,1.074,6.378-.02a22.126,22.126,0,0,1,9.433-.469A17.611,17.611,0,0,1,53.077,9.11s8.706,1.307,10.363,5.625S65.951,26.8,65.294,30.56c2.836,2.078.722,6.253-.164,8.748s-2.334,4.867-3.786,5.034c-0.273,1.816-.691,7.584-4.266,10.578,0.077,3.924.086,9.674,0.086,9.674s2.3,2.957,7.87,5.585S76.66,76.7,79.071,80.036,82.734,89,82.483,90.271c-2.919,2.464-17.2,5.152-35.424,5.152s-32.937-1.982-35.648-5.338c0.2-6.308,6.6-15.852,17.513-20.016,6.1-2.179,8.14-4.233,8.056-8.467s-0.084-6.83-.084-6.83-3.086-2.98-4.129-10.36c-3.377.491-3.638-3.855-4.075-5.837s-2.211-5.14.148-7.382c-0.1-3.921-.145-12.233.636-14.182A35.716,35.716,0,0,1,31.888,12.47Z" transform="translate(-11.406 -4.781)"/>
  <path id="pen.svg_のコピー" data-name="pen.svg のコピー" class="cls-3" d="M374.119,106.939a2.9,2.9,0,0,1,4.151,0c2.05,2.05,14.232,14.324,14.232,14.324a2.885,2.885,0,0,1,.037,4.318c-2.322,2.485-58.012,60.227-58.012,60.227l-24.6,7.613s-4.934.187-3.642-4.315,7.22-24.054,7.22-24.054Zm6.444,9.026,2.882,3.116-50.751,50.774L329.589,167Zm-62.289,53.119,7.873,4.2,4.054,7.925-13.27,4.133-2.907-2.856Z" transform="translate(-11.406 -4.781)"/>
  <path id="yen.svg_のコピー" data-name="yen.svg のコピー" class="cls-3" d="M543.691,171.963V189.19h0.739l11.472-9.874,18.524,3.39a2.15,2.15,0,0,0,2.069-.448c1.208-.854,12.911-9.087,12.911-9.087l10.871-7.8s2.217-2.491.084-4.624a4.136,4.136,0,0,0-4.8-.647l-13.347,9.188-13.722-.1a1.5,1.5,0,0,1,.083-2.727c2.374-.051,11.138.106,11.138,0.106a3.675,3.675,0,0,0,2.34-3.589c0-2.831-3.374-3.263-3.374-3.263l-16.324-.022a13.984,13.984,0,0,0-6.662,1.765,24.346,24.346,0,0,0-6.465,5.356Zm12.524-13.722s3.419-1.3,12.5-1.3,11.793-.271,13.282,1.158,3.033,2.743,2.682,5.161c4.391-1.15,9.656-5.969,11.892-9.36s3.247-9.71,3.247-12.613-1.764-10-6.616-15.582A39.1,39.1,0,0,0,581.5,117l3.078-12.07-5.183-.145s-5.5,2.83-9.19,2.83a11.173,11.173,0,0,1-6.316-2.041l3.556,11.387s-7.278,4.4-11.527,8.918-6.726,10.82-6.726,15.8S552.2,155.124,556.215,158.241Zm14.119-21.853-3.217-5.032,3.205-.084,4.417,6.891,4.467-6.9h3.038l-3.058,5.262,3.827-.036,0.013,2.884-5.8.036-0.349.588-0.144,2.389,6.2,0.072,0.084,3.262-6.322.015,0.014,4.959-3.937.049V145.7h-6.3v-3.166s5.707-.079,6.029-0.049c-0.02-.9-0.072-1.565-0.148-2.472-0.03-.353-0.055-0.6-0.055-0.6h-5.955v-2.945Z" transform="translate(-11.406 -4.781)"/>
  <path id="video.svg_のコピー" data-name="video.svg のコピー" class="cls-3" d="M120.4,153.938H155.54a9.209,9.209,0,0,1,9.21,9.21v16.173a9.209,9.209,0,0,1-9.21,9.21H120.4a9.209,9.209,0,0,1-9.21-9.21V163.148A9.209,9.209,0,0,1,120.4,153.938Zm2.284-38.984a17.489,17.489,0,1,1-17.489,17.488A17.488,17.488,0,0,1,122.682,114.954Zm31.431,0a17.489,17.489,0,1,1-17.489,17.488A17.488,17.488,0,0,1,154.113,114.954Zm-31.2,10.2a7.477,7.477,0,1,1-7.476,7.477A7.477,7.477,0,0,1,122.913,125.157Zm31.769,0a7.477,7.477,0,1,1-7.476,7.477A7.478,7.478,0,0,1,154.682,125.157Zm-32.714,16.424H156.01v8.383H121.968v-8.383ZM135.7,138.8h5.628v6.169H135.7V138.8Zm33.752,24.719,20.182-4.125a1.677,1.677,0,0,1,2.063,1.732v19.642a1.722,1.722,0,0,1-2.063,1.782l-20.182-3.637a1.467,1.467,0,0,1-.863-1.51V165.048A1.509,1.509,0,0,1,169.456,163.517Z" transform="translate(-11.406 -4.781)"/>
  <path id="camera.svg_のコピー" data-name="camera.svg のコピー" class="cls-3" d="M208.462,131.585l0.026,44s0.172,4.444,4.6,4.444h74.342s5.033-.453,5.033-5.636V131.8a4.417,4.417,0,0,0-4.523-4.2c-4.3,0-10.542-.025-10.542-0.025s-3.249.905-5.387-4.181-2.5-5.807-2.5-5.807-0.756-2.927-5.509-2.927H236.045a6.183,6.183,0,0,0-4.663,2.717c-1.183,2.753-3.132,7.094-3.132,7.094a5.638,5.638,0,0,1-4.574,2.994c-3.353.294-9.686,0.041-9.686,0.041S209.277,127.787,208.462,131.585Zm42.034,1.762a19.2,19.2,0,1,1-19.2,19.2A19.2,19.2,0,0,1,250.5,133.347Zm-0.018,8.41a10.526,10.526,0,1,1-10.525,10.526A10.526,10.526,0,0,1,250.478,141.757Z" transform="translate(-11.406 -4.781)"/>
  <path id="home.svg_のコピー" data-name="home.svg のコピー" class="cls-3" d="M405.312,151.157l6.161,6.354,37.474-37.1,37.815,37.283,6.292-7.1-43.746-43.776Zm14.058,7.215,0.064,25.34,33.1,0.07,0.059-19.97,11.523-.21,0.069,20.25,14.179,0.125,0.07-25.114-29.389-29.189Z" transform="translate(-11.406 -4.781)"/>
  <path id="men.svg_のコピー" data-name="men.svg のコピー" class="cls-3" d="M38.888,112.47l-0.451-5.236s2.189,1.074,6.378-.02a22.133,22.133,0,0,1,9.433-.469,17.61,17.61,0,0,1,5.829,2.365s8.706,1.307,10.363,5.625,2.511,12.065,1.854,15.825c2.836,2.078.722,6.253-.164,8.748s-2.334,4.867-3.786,5.034c-0.273,1.816-.691,7.584-4.266,10.578,0.077,3.924.086,9.674,0.086,9.674s2.3,2.956,7.87,5.584,11.626,6.522,14.037,9.858,3.663,8.963,3.413,10.235c-2.919,2.464-17.2,5.153-35.424,5.153s-32.937-1.982-35.648-5.339c0.2-6.308,6.6-15.852,17.513-20.016,6.1-2.179,8.14-4.233,8.056-8.467s-0.084-6.83-.084-6.83-3.086-2.979-4.129-10.36c-3.377.491-3.638-3.855-4.075-5.837s-2.211-5.14.148-7.382c-0.1-3.92-.145-12.232.636-14.182A35.745,35.745,0,0,1,38.888,112.47Z" transform="translate(-11.406 -4.781)"/>
  <path id="mail.svg" class="cls-3" d="M89.007,285.8H13.223a1.557,1.557,0,0,1-1.557-1.557V233.725a1.558,1.558,0,0,1,1.557-1.558H89.007a1.558,1.558,0,0,1,1.557,1.558v50.522A1.557,1.557,0,0,1,89.007,285.8Zm-2.929-3.115L63.152,252.915l-11.985,8.026-12.176-8.132L16.02,282.689H86.078Zm-71.3-3.5,21.614-28.115L14.781,236.638v42.551Zm3.578-43.907,32.76,21.887,32.755-21.887H18.358Zm47.389,15.895,21.7,28.186v-42.72Z" transform="translate(-11.406 -4.781)"/>
</svg>
